<?xml version="1.0" encoding="iso-8859-1"?>
<!-- Generator: Adobe Illustrator 19.0.0, SVG Export Plug-In . SVG Version: 6.00 Build 0)  -->
<svg version="1.1" id="Capa_1" xmlns="http://www.w3.org/2000/svg" xmlns:xlink="http://www.w3.org/1999/xlink" x="0px" y="0px"
	 viewBox="0 0 511.998 511.998" style="enable-background:new 0 0 511.998 511.998;" xml:space="preserve">
<circle style="fill:#FFFFFF;" cx="256" cy="256" r="246"/>
<path style="fill:#FF5A5A;" d="M327.722,150.998c-28.251,0-53.728,12.173-71.725,31.68c-17.997-19.507-43.474-31.68-71.724-31.68
	c-54.529,0-98.734,45.34-98.734,101.271c0,78.344,170.458,186.249,170.458,186.249s170.458-107.905,170.458-186.249
	C426.456,196.338,382.251,150.998,327.722,150.998z"/>
<path d="M255.998,511.998c-68.38,0-132.667-26.629-181.02-74.98C31.794,393.833,5.434,336.56,0.756,275.749
	c-4.627-60.148,12.099-120.113,47.096-168.851c3.222-4.484,9.469-5.511,13.956-2.29c4.486,3.222,5.511,9.47,2.29,13.956
	C-3.54,212.756,6.983,340.737,89.121,422.875c44.574,44.575,103.839,69.123,166.877,69.123S378.3,467.45,422.875,422.875
	c44.575-44.574,69.123-103.839,69.123-166.877S467.45,133.695,422.875,89.121C341.121,7.367,213.512-3.424,119.448,63.465
	c-4.501,3.201-10.744,2.146-13.944-2.354c-3.201-4.501-2.146-10.744,2.354-13.944C156.572,12.524,216.403-3.946,276.311,0.801
	c60.594,4.795,117.667,31.139,160.706,74.178c48.352,48.353,74.98,112.64,74.98,181.02s-26.629,132.667-74.98,181.02
	C388.665,485.369,324.378,511.998,255.998,511.998z"/>
<path d="M81.954,92.146c-2.567,0-5.135-0.982-7.089-2.947c-3.896-3.915-3.879-10.247,0.036-14.142l0.19-0.189
	c3.915-3.896,10.245-3.882,14.142,0.036c3.896,3.915,3.879,10.247-0.036,14.142l-0.19,0.189
	C87.055,91.176,84.504,92.146,81.954,92.146z"/>
<path d="M255.998,448.518c-1.857,0-3.716-0.517-5.349-1.551c-1.766-1.117-43.729-27.795-86.413-64.623
	c-58.854-50.782-88.696-94.545-88.696-130.075c0-61.354,48.777-111.271,108.733-111.271c26.795,0,51.905,9.739,71.725,27.626
	c19.819-17.887,44.93-27.626,71.725-27.626c59.956,0,108.733,49.916,108.733,111.271c0,35.53-29.842,79.293-88.696,130.075
	c-42.684,36.828-84.647,63.506-86.413,64.623C259.713,448.001,257.855,448.518,255.998,448.518z M184.273,160.998
	c-48.928,0-88.733,40.943-88.733,91.271c0,29.037,28.272,68.78,81.762,114.933c32.901,28.388,66.102,51.052,78.73,59.403
	c49.386-32.248,160.425-116.822,160.425-174.336c0-50.327-39.806-91.271-88.733-91.271c-24.58,0-47.442,10.107-64.375,28.461
	c-1.893,2.052-4.558,3.219-7.35,3.219c-2.792,0-5.457-1.167-7.35-3.219C231.715,171.106,208.853,160.998,184.273,160.998z"/>
<path d="M383.841,262.269c-5.522,0-10-4.478-10-10c0-26.838-20.689-48.673-46.119-48.673c-2.584,0-5.165,0.223-7.673,0.662
	c-5.438,0.946-10.622-2.687-11.575-8.126c-0.952-5.44,2.686-10.622,8.126-11.575c3.644-0.638,7.386-0.961,11.122-0.961
	c36.458,0,66.119,30.807,66.119,68.673C393.841,257.791,389.364,262.269,383.841,262.269z M287.323,221.555
	c-2.456,0-4.916-0.898-6.847-2.714c-4.024-3.782-4.221-10.111-0.438-14.135l0.07-0.076c3.741-4.062,10.069-4.32,14.13-0.577
	c4.062,3.742,4.32,10.069,0.577,14.13l-0.205,0.221C292.643,220.497,289.986,221.555,287.323,221.555z"/>
<path d="M255.998,95.202c-5.522,0-10-4.478-10-10V59.106c0-5.522,4.478-10,10-10c5.522,0,10,4.478,10,10v26.097
	C265.998,90.725,261.52,95.202,255.998,95.202z"/>
<path d="M158.48,122.547c-2.56,0-5.118-0.977-7.071-2.929l-18.453-18.453c-3.905-3.905-3.905-10.237,0-14.143
	c3.906-3.904,10.236-3.904,14.143,0l18.453,18.453c3.905,3.905,3.905,10.237,0,14.143C163.598,121.57,161.04,122.547,158.48,122.547
	z"/>
<path d="M353.515,122.547c-2.56,0-5.118-0.977-7.071-2.929c-3.905-3.905-3.905-10.237,0-14.143l18.453-18.453
	c3.906-3.904,10.236-3.904,14.143,0c3.905,3.905,3.905,10.237,0,14.143l-18.453,18.453
	C358.633,121.57,356.075,122.547,353.515,122.547z"/>
<g>
</g>
<g>
</g>
<g>
</g>
<g>
</g>
<g>
</g>
<g>
</g>
<g>
</g>
<g>
</g>
<g>
</g>
<g>
</g>
<g>
</g>
<g>
</g>
<g>
</g>
<g>
</g>
<g>
</g>
</svg>
